# xmcd
#
# Track frame offsets: 
#        150
#        24119
#        45422
#        62703
#        89457
#        128438
#        154043
#        171315
#        204565
#        225809
#        238847
#        255192
#        259382
#        273005
#
# Disc length: 3874 seconds
#
# Revision: 1
# Processed by: cddbd v1.5.2PL0 Copyright (c) Steve Scherf et al.
# Submitted via: ExactAudioCopyFreeDBPlugin 1.0
#
DISCID=a60f200e
DTITLE=Screamin' Jay Hawkins - Live At The Meridien
DYEAR=1988
DGENRE=Blues
TTITLE0=Lawdy Miss Clowdy
TTITLE1=The Whammy
TTITLE2=Hong Kong
TTITLE3=Yellow Coat
TTITLE4=Ain't it A Shame
TTITLE5=Alligator Wine
TTITLE6=I put A Spell On You
TTITLE7=Little Bitty Pretty One
TTITLE8=Constipation Blues
TTITLE9=Goodnight Sweetheat
TTITLE10=Tutti Frutti
TTITLE11=Jay Hawkins Introduction
TTITLE12=In Spite Of It All
TTITLE13=What A price I must Pay
EXTD=screamin jay hawkins live\n
EXTT0=
EXTT1=
EXTT2=
EXTT3=
EXTT4=
EXTT5=
EXTT6=
EXTT7=
EXTT8=
EXTT9=
EXTT10=
EXTT11=
EXTT12=
EXTT13=
PLAYORDER=
